<svg width="64" height="84" viewBox="0 0 64 84" fill="none" xmlns="http://www.w3.org/2000/svg">
<path d="M45.8735 18.2961L58.8411 35.4243L61.7445 48.4652C60.3897 50.8008 57.2929 57.3018 55.7445 64.6202C53.8091 73.7683 20.7126 81.9431 20.1319 81.7485C19.843 81.6516 18.521 81.171 17.2214 80.4936C15.909 79.8095 14.618 78.9276 14.1318 78.6343C13.3576 78.1671 11.0324 39.3171 45.8735 18.2961Z" fill="white"/>
<path d="M47.2309 20.0625C47.0769 31.4643 40.7378 41.3946 31.3618 46.7592C31.3361 46.7676 31.319 46.7844 31.3019 46.7928C31.1993 46.8517 31.0966 46.9106 30.9854 46.9694C23.6625 51.1652 18.196 58.1442 16.0744 66.4181C15.4414 68.8733 15.1077 71.4463 15.1077 74.095C15.1077 75.9532 15.2703 77.7863 15.5868 79.552C9.34181 75.8776 4.47415 70.1682 1.94193 63.3574C1.4372 62.0037 1.02657 60.5995 0.710046 59.1616C0.342191 57.4715 0.111212 55.731 0.0342192 53.9484C0.0085549 53.4859 0 53.0151 0 52.5526C0 51.6781 0.0342187 50.8121 0.111212 49.9544C0.17965 49.0883 0.290862 48.2391 0.427738 47.3982C1.27466 42.3532 3.33636 37.7118 6.31342 33.7766L23.5855 11.0571L25.7584 8.20662L31.9949 0L43.2957 14.8829L44.8954 16.9934C44.8954 16.9934 44.904 16.9934 44.904 17.0018L47.2309 20.0625Z" fill="white"/>
<path d="M63.8359 55.4198C65.0934 44.0937 58.7116 35.2564 58.7116 35.2564C58.7201 35.5255 58.7372 35.7946 58.7458 36.0637C58.7543 36.3327 58.7543 36.6018 58.7543 36.8709C58.7543 41.8823 57.5567 46.6162 55.4351 50.8204C53.3135 55.0162 50.2595 58.6907 46.5381 61.558C46.4269 61.642 46.3157 61.7261 46.1959 61.8186C46.0847 61.9027 45.965 61.9868 45.8537 62.0709C45.3233 62.4577 44.7758 62.836 44.2198 63.1892C43.6637 63.5423 43.0905 63.8871 42.5088 64.2066C42.5858 64.1225 42.6628 64.03 42.7398 63.9459C42.8168 63.8619 42.9023 63.7778 42.9879 63.6937C43.0221 63.6517 43.0563 63.618 43.0905 63.576C43.1248 63.5339 43.1675 63.5003 43.2018 63.4583C43.2959 63.3658 43.3814 63.2649 43.4841 63.1724C43.5782 63.0799 43.6723 62.9874 43.7664 62.8949C43.7664 62.8949 43.7749 62.8949 43.7749 62.8865C43.7749 62.8865 43.7835 62.8865 43.7835 62.8781C44.0059 62.6847 44.2283 62.4829 44.4422 62.2811C44.6646 62.0793 44.8785 61.8775 45.0924 61.6673V61.6589C45.0924 61.6589 45.0924 61.6589 45.1009 61.6589C47.0771 59.7249 48.788 57.5471 50.1996 55.1592C51.6111 52.7796 52.7061 50.1982 53.4418 47.4655C53.6129 46.8264 53.7669 46.1706 53.8952 45.5147C54.0321 44.8589 54.1348 44.1946 54.2289 43.5219C54.3144 42.8492 54.3829 42.1766 54.4342 41.4871C54.477 40.806 54.5026 40.1165 54.5026 39.4186C54.5026 36.7784 54.169 34.2138 53.5445 31.7585C52.92 29.3117 51.9961 26.9742 50.8241 24.788L50.7727 24.7207C50.7556 28.0925 50.1996 31.3381 49.173 34.3736C48.155 37.409 46.675 40.251 44.8186 42.7904C43.544 44.5393 42.0982 46.1453 40.4985 47.6C38.8987 49.0546 37.145 50.3495 35.2715 51.451C35.2458 51.4595 35.2287 51.4763 35.2031 51.4847C35.1774 51.4931 35.1603 51.5099 35.1346 51.5183C35.0405 51.5688 34.955 51.6192 34.8694 51.6697C34.7839 51.7201 34.6983 51.7706 34.6042 51.821C33.0729 52.7291 31.6186 53.755 30.2669 54.8985C28.9238 56.0589 27.6663 57.3033 26.5285 58.6486C24.2444 61.3393 22.4051 64.4084 21.1304 67.7465C20.9422 68.2258 20.7711 68.7219 20.6086 69.2096C20.4461 69.7057 20.3006 70.2018 20.1638 70.7063C20.0782 71.0174 20.0012 71.3369 19.9242 71.648C19.8558 71.9676 19.7788 72.2871 19.7189 72.6066C19.5136 73.5988 19.3596 74.6162 19.257 75.6336C19.1543 76.6595 19.103 77.7021 19.103 78.7532C19.103 79.1988 19.1115 79.636 19.1286 80.0817C19.1457 80.5189 19.1714 80.9562 19.2142 81.3934C21.1647 82.2342 23.2264 82.8817 25.3651 83.3273C27.4952 83.7646 29.7109 84 31.9779 84C32.2773 84 32.5767 84 32.8676 83.9916C33.167 83.9832 33.4579 83.9748 33.7573 83.958C33.86 83.9496 33.9626 83.9496 34.0653 83.9411C34.1679 83.9327 34.2706 83.9327 34.3732 83.9159L38.0005 83.4451C39.3863 83.1844 40.7465 82.8396 42.064 82.4024C42.2522 82.3436 42.4404 82.2763 42.6286 82.209C43.005 82.0745 43.3729 81.9399 43.7407 81.797C44.4764 81.5111 45.195 81.2 45.9051 80.8637C47.1455 80.2751 48.3346 79.6108 49.4724 78.8709C50.1226 78.4505 50.7642 78.0048 51.3801 77.5424C51.6881 77.3069 51.9961 77.0715 52.2955 76.8276C53.0483 76.2222 53.7669 75.5832 54.4598 74.9105C55.1528 74.2378 55.8115 73.5399 56.436 72.8084C56.5643 72.6655 56.6841 72.5141 56.8124 72.3712C56.9322 72.2198 57.0519 72.0769 57.1717 71.9255C58.2496 70.5718 59.2163 69.1255 60.0632 67.6036C60.1573 67.4354 60.2429 67.2673 60.337 67.0991C60.4311 66.9309 60.5166 66.7544 60.6022 66.5862C60.6877 66.4096 60.7733 66.2414 60.8588 66.0649C61.0299 65.7201 61.1925 65.367 61.3464 65.0054C61.4234 64.8288 61.5004 64.6523 61.5774 64.4673C61.6116 64.4 61.6373 64.3243 61.663 64.2571C61.7827 63.9712 61.8939 63.6769 62.0052 63.3826C62.2105 62.836 62.3987 62.2811 62.5698 61.7177C62.681 61.3477 62.7922 60.9694 62.8948 60.5826C63.0488 60.0108 63.1857 59.439 63.3055 58.8504C63.3311 58.7075 63.3654 58.573 63.391 58.43C63.5963 57.4378 63.7161 56.4372 63.8359 55.4198Z" fill="white"/>
<g clip-path="url(#clip0)">
<path d="M31.0939 61.2727C31.0939 55.6584 35.663 51.0909 41.2779 51.0909C42.406 51.0909 43.5341 51.2855 44.6323 51.669C44.7105 51.696 44.7915 51.7095 44.8725 51.7095C44.8838 51.7102 44.8938 51.7095 44.9009 51.7095C45.303 51.7095 45.6283 51.3842 45.6283 50.9822C45.6283 50.8935 45.6127 50.8082 45.5843 50.7294C45.0231 43.5745 39.0175 38 31.8213 38C24.2003 38 18 44.1989 18 51.8182C18 59.0831 23.6831 65.1336 30.9389 65.5931C30.9531 65.5937 30.9688 65.5945 30.9844 65.5945C31.2117 65.5945 31.4263 65.4887 31.5641 65.3068C31.7119 65.1129 31.7517 64.858 31.6707 64.6279C31.2884 63.5306 31.0939 62.4013 31.0939 61.2727ZM27.9687 56.696C27.8267 56.838 27.6406 56.9091 27.4545 56.9091C27.2684 56.9091 27.0824 56.838 26.9403 56.696C26.6562 56.4119 26.6562 55.9517 26.9403 55.6676L31.0909 51.5171V43.0909C31.0909 42.6889 31.4162 42.3636 31.8182 42.3636C32.2202 42.3636 32.5455 42.6889 32.5455 43.0909V51.8182C32.5455 52.0114 32.4688 52.1961 32.3324 52.3324L27.9687 56.696Z" fill="#2686D8"/>
<path d="M41.2722 52.5453C36.4597 52.5453 32.5449 56.4601 32.5449 61.2726C32.5449 66.085 36.4597 69.9998 41.2722 69.9998C46.0847 69.9998 49.9995 66.085 49.9995 61.2726C49.9995 56.4601 46.0848 52.5453 41.2722 52.5453Z" fill="#B3D4F1"/>
<path d="M41.0017 62.9344C40.8397 62.9344 40.7083 63.0657 40.7083 63.2277V63.2277C40.7083 63.3897 40.8397 63.5211 41.0017 63.5211H42.6583C42.824 63.5211 42.9583 63.6554 42.9583 63.8211V64.0906C42.9583 64.2563 42.824 64.3906 42.6583 64.3906H41.0083C40.8426 64.3906 40.7083 64.5249 40.7083 64.6906V65.0335C40.7083 65.1991 40.574 65.3335 40.4083 65.3335H39.3104C39.1447 65.3335 39.0104 65.1991 39.0104 65.0335V64.6906C39.0104 64.5249 38.8761 64.3906 38.7104 64.3906H38.3C38.1343 64.3906 38 64.2563 38 64.0906V63.8211C38 63.6554 38.1343 63.5211 38.3 63.5211H38.7104C38.8761 63.5211 39.0104 63.3868 39.0104 63.2211V58.3001C39.0104 58.1344 39.1447 58.0001 39.3104 58.0001H42.1667C43.1597 58.0001 43.934 58.2096 44.4896 58.6287C45.0521 59.0477 45.3333 59.6623 45.3333 60.4725C45.3333 61.2757 45.0521 61.8868 44.4896 62.3058C43.934 62.7249 43.1597 62.9344 42.1667 62.9344H41.0017ZM43.625 60.483C43.625 60.1268 43.4965 59.8544 43.2396 59.6658C42.9896 59.4773 42.6285 59.383 42.1562 59.383H41.0083C40.8426 59.383 40.7083 59.5173 40.7083 59.683V61.3039C40.7083 61.4696 40.8426 61.6039 41.0083 61.6039H42.1562C42.6285 61.6039 42.9896 61.5096 43.2396 61.3211C43.4965 61.1255 43.625 60.8462 43.625 60.483Z" fill="#F9F9FA"/>
</g>
<defs>
<clipPath id="clip0">
<rect x="18" y="38" width="32" height="32" fill="white"/>
</clipPath>
</defs>
</svg>
