<svg width="64" height="84" viewBox="0 0 64 84" fill="none" xmlns="http://www.w3.org/2000/svg">
<path d="M45.8735 18.2961L58.8411 35.4243L61.7445 48.4652C60.3897 50.8008 57.2929 57.3018 55.7445 64.6202C53.8091 73.7683 20.7126 81.9431 20.1319 81.7485C19.843 81.6516 18.521 81.171 17.2214 80.4936C15.909 79.8095 14.618 78.9276 14.1318 78.6343C13.3576 78.1671 11.0324 39.3171 45.8735 18.2961Z" fill="white"/>
<path d="M47.2309 20.0625C47.0769 31.4643 40.7378 41.3946 31.3618 46.7592C31.3361 46.7676 31.319 46.7844 31.3019 46.7928C31.1993 46.8517 31.0966 46.9106 30.9854 46.9694C23.6625 51.1652 18.196 58.1442 16.0744 66.4181C15.4414 68.8733 15.1077 71.4463 15.1077 74.095C15.1077 75.9532 15.2703 77.7863 15.5868 79.552C9.34181 75.8776 4.47415 70.1682 1.94193 63.3574C1.4372 62.0037 1.02657 60.5995 0.710046 59.1616C0.342191 57.4715 0.111212 55.731 0.0342192 53.9484C0.0085549 53.4859 0 53.0151 0 52.5526C0 51.6781 0.0342187 50.8121 0.111212 49.9544C0.17965 49.0883 0.290862 48.2391 0.427738 47.3982C1.27466 42.3532 3.33636 37.7118 6.31342 33.7766L23.5855 11.0571L25.7584 8.20662L31.9949 0L43.2957 14.8829L44.8954 16.9934C44.8954 16.9934 44.904 16.9934 44.904 17.0018L47.2309 20.0625Z" fill="white"/>
<path d="M63.8359 55.4198C65.0934 44.0937 58.7116 35.2564 58.7116 35.2564C58.7201 35.5255 58.7372 35.7946 58.7458 36.0637C58.7543 36.3327 58.7543 36.6018 58.7543 36.8709C58.7543 41.8823 57.5567 46.6162 55.4351 50.8204C53.3135 55.0162 50.2595 58.6907 46.5381 61.558C46.4269 61.642 46.3157 61.7261 46.1959 61.8186C46.0847 61.9027 45.965 61.9868 45.8537 62.0709C45.3233 62.4577 44.7758 62.836 44.2198 63.1892C43.6637 63.5423 43.0905 63.8871 42.5088 64.2066C42.5858 64.1225 42.6628 64.03 42.7398 63.9459C42.8168 63.8619 42.9023 63.7778 42.9879 63.6937C43.0221 63.6517 43.0563 63.618 43.0905 63.576C43.1248 63.5339 43.1675 63.5003 43.2018 63.4583C43.2959 63.3658 43.3814 63.2649 43.4841 63.1724C43.5782 63.0799 43.6723 62.9874 43.7664 62.8949C43.7664 62.8949 43.7749 62.8949 43.7749 62.8865C43.7749 62.8865 43.7835 62.8865 43.7835 62.8781C44.0059 62.6847 44.2283 62.4829 44.4422 62.2811C44.6646 62.0793 44.8785 61.8775 45.0924 61.6673V61.6589C45.0924 61.6589 45.0924 61.6589 45.1009 61.6589C47.0771 59.7249 48.788 57.5471 50.1996 55.1592C51.6111 52.7796 52.7061 50.1982 53.4418 47.4655C53.6129 46.8264 53.7669 46.1706 53.8952 45.5147C54.0321 44.8589 54.1348 44.1946 54.2289 43.5219C54.3144 42.8492 54.3829 42.1766 54.4342 41.4871C54.477 40.806 54.5026 40.1165 54.5026 39.4186C54.5026 36.7784 54.169 34.2138 53.5445 31.7585C52.92 29.3117 51.9961 26.9742 50.8241 24.788L50.7727 24.7207C50.7556 28.0925 50.1996 31.3381 49.173 34.3736C48.155 37.409 46.675 40.251 44.8186 42.7904C43.544 44.5393 42.0982 46.1453 40.4985 47.6C38.8987 49.0546 37.145 50.3495 35.2715 51.451C35.2458 51.4595 35.2287 51.4763 35.2031 51.4847C35.1774 51.4931 35.1603 51.5099 35.1346 51.5183C35.0405 51.5688 34.955 51.6192 34.8694 51.6697C34.7839 51.7201 34.6983 51.7706 34.6042 51.821C33.0729 52.7291 31.6186 53.755 30.2669 54.8985C28.9238 56.0589 27.6663 57.3033 26.5285 58.6486C24.2444 61.3393 22.4051 64.4084 21.1304 67.7465C20.9422 68.2258 20.7711 68.7219 20.6086 69.2096C20.4461 69.7057 20.3006 70.2018 20.1638 70.7063C20.0782 71.0174 20.0012 71.3369 19.9242 71.648C19.8558 71.9676 19.7788 72.2871 19.7189 72.6066C19.5136 73.5988 19.3596 74.6162 19.257 75.6336C19.1543 76.6595 19.103 77.7021 19.103 78.7532C19.103 79.1988 19.1115 79.636 19.1286 80.0817C19.1457 80.5189 19.1714 80.9562 19.2142 81.3934C21.1647 82.2342 23.2264 82.8817 25.3651 83.3273C27.4952 83.7646 29.7109 84 31.9779 84C32.2773 84 32.5767 84 32.8676 83.9916C33.167 83.9832 33.4579 83.9748 33.7573 83.958C33.86 83.9496 33.9626 83.9496 34.0653 83.9411C34.1679 83.9327 34.2706 83.9327 34.3732 83.9159L38.0005 83.4451C39.3863 83.1844 40.7465 82.8396 42.064 82.4024C42.2522 82.3436 42.4404 82.2763 42.6286 82.209C43.005 82.0745 43.3729 81.9399 43.7407 81.797C44.4764 81.5111 45.195 81.2 45.9051 80.8637C47.1455 80.2751 48.3346 79.6108 49.4724 78.8709C50.1226 78.4505 50.7642 78.0048 51.3801 77.5424C51.6881 77.3069 51.9961 77.0715 52.2955 76.8276C53.0483 76.2222 53.7669 75.5832 54.4598 74.9105C55.1528 74.2378 55.8115 73.5399 56.436 72.8084C56.5643 72.6655 56.6841 72.5141 56.8124 72.3712C56.9322 72.2198 57.0519 72.0769 57.1717 71.9255C58.2496 70.5718 59.2163 69.1255 60.0632 67.6036C60.1573 67.4354 60.2429 67.2673 60.337 67.0991C60.4311 66.9309 60.5166 66.7544 60.6022 66.5862C60.6877 66.4096 60.7733 66.2414 60.8588 66.0649C61.0299 65.7201 61.1925 65.367 61.3464 65.0054C61.4234 64.8288 61.5004 64.6523 61.5774 64.4673C61.6116 64.4 61.6373 64.3243 61.663 64.2571C61.7827 63.9712 61.8939 63.6769 62.0052 63.3826C62.2105 62.836 62.3987 62.2811 62.5698 61.7177C62.681 61.3477 62.7922 60.9694 62.8948 60.5826C63.0488 60.0108 63.1857 59.439 63.3055 58.8504C63.3311 58.7075 63.3654 58.573 63.391 58.43C63.5963 57.4378 63.7161 56.4372 63.8359 55.4198Z" fill="white"/>
<g clip-path="url(#clip0)">
<circle cx="31.9984" cy="52.0004" r="10.6" fill="#F9F9FA"/>
<path d="M31.9968 45.6401C28.4898 45.6401 25.6367 48.4932 25.6367 52C25.6367 55.5071 28.4898 58.3601 31.9968 58.3601C35.5037 58.3601 38.3567 55.5071 38.3567 52C38.3567 48.4932 35.5037 45.6401 31.9968 45.6401ZM35.7728 50.8023L31.2165 55.3586C31.0253 55.5499 30.7744 55.6456 30.5238 55.6456C30.2732 55.6456 30.0226 55.5501 29.8314 55.3586L28.0902 53.6174C27.7077 53.2352 27.7077 52.615 28.0902 52.2325C28.4725 51.85 29.0926 51.85 29.4751 52.2325L30.5238 53.2813L34.3879 49.4174C34.7702 49.0349 35.3903 49.0349 35.7728 49.4174C36.1554 49.7997 36.1554 50.4198 35.7728 50.8023Z" fill="#2686D8"/>
<path d="M45.5929 44.6822L45.592 44.6573C45.578 44.3499 45.5688 44.0247 45.5631 43.6629C45.537 41.8985 44.1344 40.439 42.3698 40.3404C38.6906 40.1351 35.8444 38.9354 33.4125 36.565L33.3918 36.5452C32.5986 35.8179 31.4021 35.8179 30.6086 36.5452L30.5878 36.565C28.156 38.9354 25.3098 40.1351 21.6306 40.3406C19.8662 40.439 18.4634 41.8985 18.4372 43.6631C18.4319 44.0225 18.4224 44.3477 18.4084 44.6573L18.407 44.7151C18.3354 48.4668 18.2466 53.136 19.8086 57.374C20.6675 59.7046 21.9682 61.7305 23.6745 63.3957C25.6179 65.2922 28.1633 66.7978 31.2399 67.8706C31.34 67.9055 31.444 67.9338 31.55 67.955C31.6994 67.9848 31.8498 67.9997 32.0002 67.9997C32.1506 67.9997 32.3012 67.9848 32.4504 67.955C32.5563 67.9338 32.6611 67.9052 32.7617 67.8701C35.8347 66.7954 38.3774 65.289 40.319 63.3928C42.0246 61.727 43.3254 59.7007 44.185 57.3696C45.7528 53.1189 45.6642 48.4409 45.5929 44.6822ZM31.9997 59.9751C27.6023 59.9751 24.0249 56.3977 24.0249 52.0003C24.0249 47.6028 27.6023 44.0254 31.9997 44.0254C36.3969 44.0254 39.9745 47.6028 39.9745 52.0003C39.9745 56.3977 36.3969 59.9751 31.9997 59.9751Z" fill="#B3D4F1"/>
</g>
<defs>
<clipPath id="clip0">
<rect x="16" y="36" width="32" height="32" fill="white"/>
</clipPath>
</defs>
</svg>
