<svg width="64" height="84" viewBox="0 0 64 84" fill="none" xmlns="http://www.w3.org/2000/svg">
<path d="M45.8735 18.2961L58.8411 35.4243L61.7445 48.4652C60.3897 50.8008 57.2929 57.3018 55.7445 64.6202C53.8091 73.7683 20.7126 81.9431 20.1319 81.7485C19.843 81.6516 18.521 81.171 17.2214 80.4936C15.909 79.8095 14.618 78.9276 14.1318 78.6343C13.3576 78.1671 11.0324 39.3171 45.8735 18.2961Z" fill="white"/>
<path d="M47.2309 20.0625C47.0769 31.4643 40.7378 41.3946 31.3618 46.7592C31.3361 46.7676 31.319 46.7844 31.3019 46.7928C31.1993 46.8517 31.0966 46.9106 30.9854 46.9694C23.6625 51.1652 18.196 58.1442 16.0744 66.4181C15.4414 68.8733 15.1077 71.4463 15.1077 74.095C15.1077 75.9532 15.2703 77.7863 15.5868 79.552C9.34181 75.8776 4.47415 70.1682 1.94193 63.3574C1.4372 62.0037 1.02657 60.5995 0.710046 59.1616C0.342191 57.4715 0.111212 55.731 0.0342192 53.9484C0.0085549 53.4859 0 53.0151 0 52.5526C0 51.6781 0.0342187 50.8121 0.111212 49.9544C0.17965 49.0883 0.290862 48.2391 0.427738 47.3982C1.27466 42.3532 3.33636 37.7118 6.31342 33.7766L23.5855 11.0571L25.7584 8.20662L31.9949 0L43.2957 14.8829L44.8954 16.9934C44.8954 16.9934 44.904 16.9934 44.904 17.0018L47.2309 20.0625Z" fill="white"/>
<path d="M63.8359 55.4198C65.0934 44.0937 58.7116 35.2564 58.7116 35.2564C58.7201 35.5255 58.7372 35.7946 58.7458 36.0637C58.7543 36.3327 58.7543 36.6018 58.7543 36.8709C58.7543 41.8823 57.5567 46.6162 55.4351 50.8204C53.3135 55.0162 50.2595 58.6907 46.5381 61.558C46.4269 61.642 46.3157 61.7261 46.1959 61.8186C46.0847 61.9027 45.965 61.9868 45.8537 62.0709C45.3233 62.4577 44.7758 62.836 44.2198 63.1892C43.6637 63.5423 43.0905 63.8871 42.5088 64.2066C42.5858 64.1225 42.6628 64.03 42.7398 63.9459C42.8168 63.8619 42.9023 63.7778 42.9879 63.6937C43.0221 63.6517 43.0563 63.618 43.0905 63.576C43.1248 63.5339 43.1675 63.5003 43.2018 63.4583C43.2959 63.3658 43.3814 63.2649 43.4841 63.1724C43.5782 63.0799 43.6723 62.9874 43.7664 62.8949C43.7664 62.8949 43.7749 62.8949 43.7749 62.8865C43.7749 62.8865 43.7835 62.8865 43.7835 62.8781C44.0059 62.6847 44.2283 62.4829 44.4422 62.2811C44.6646 62.0793 44.8785 61.8775 45.0924 61.6673V61.6589C45.0924 61.6589 45.0924 61.6589 45.1009 61.6589C47.0771 59.7249 48.788 57.5471 50.1996 55.1592C51.6111 52.7796 52.7061 50.1982 53.4418 47.4655C53.6129 46.8264 53.7669 46.1706 53.8952 45.5147C54.0321 44.8589 54.1348 44.1946 54.2289 43.5219C54.3144 42.8492 54.3829 42.1766 54.4342 41.4871C54.477 40.806 54.5026 40.1165 54.5026 39.4186C54.5026 36.7784 54.169 34.2138 53.5445 31.7585C52.92 29.3117 51.9961 26.9742 50.8241 24.788L50.7727 24.7207C50.7556 28.0925 50.1996 31.3381 49.173 34.3736C48.155 37.409 46.675 40.251 44.8186 42.7904C43.544 44.5393 42.0982 46.1453 40.4985 47.6C38.8987 49.0546 37.145 50.3495 35.2715 51.451C35.2458 51.4595 35.2287 51.4763 35.2031 51.4847C35.1774 51.4931 35.1603 51.5099 35.1346 51.5183C35.0405 51.5688 34.955 51.6192 34.8694 51.6697C34.7839 51.7201 34.6983 51.7706 34.6042 51.821C33.0729 52.7291 31.6186 53.755 30.2669 54.8985C28.9238 56.0589 27.6663 57.3033 26.5285 58.6486C24.2444 61.3393 22.4051 64.4084 21.1304 67.7465C20.9422 68.2258 20.7711 68.7219 20.6086 69.2096C20.4461 69.7057 20.3006 70.2018 20.1638 70.7063C20.0782 71.0174 20.0012 71.3369 19.9242 71.648C19.8558 71.9676 19.7788 72.2871 19.7189 72.6066C19.5136 73.5988 19.3596 74.6162 19.257 75.6336C19.1543 76.6595 19.103 77.7021 19.103 78.7532C19.103 79.1988 19.1115 79.636 19.1286 80.0817C19.1457 80.5189 19.1714 80.9562 19.2142 81.3934C21.1647 82.2342 23.2264 82.8817 25.3651 83.3273C27.4952 83.7646 29.7109 84 31.9779 84C32.2773 84 32.5767 84 32.8676 83.9916C33.167 83.9832 33.4579 83.9748 33.7573 83.958C33.86 83.9496 33.9626 83.9496 34.0653 83.9411C34.1679 83.9327 34.2706 83.9327 34.3732 83.9159L38.0005 83.4451C39.3863 83.1844 40.7465 82.8396 42.064 82.4024C42.2522 82.3436 42.4404 82.2763 42.6286 82.209C43.005 82.0745 43.3729 81.9399 43.7407 81.797C44.4764 81.5111 45.195 81.2 45.9051 80.8637C47.1455 80.2751 48.3346 79.6108 49.4724 78.8709C50.1226 78.4505 50.7642 78.0048 51.3801 77.5424C51.6881 77.3069 51.9961 77.0715 52.2955 76.8276C53.0483 76.2222 53.7669 75.5832 54.4598 74.9105C55.1528 74.2378 55.8115 73.5399 56.436 72.8084C56.5643 72.6655 56.6841 72.5141 56.8124 72.3712C56.9322 72.2198 57.0519 72.0769 57.1717 71.9255C58.2496 70.5718 59.2163 69.1255 60.0632 67.6036C60.1573 67.4354 60.2429 67.2673 60.337 67.0991C60.4311 66.9309 60.5166 66.7544 60.6022 66.5862C60.6877 66.4096 60.7733 66.2414 60.8588 66.0649C61.0299 65.7201 61.1925 65.367 61.3464 65.0054C61.4234 64.8288 61.5004 64.6523 61.5774 64.4673C61.6116 64.4 61.6373 64.3243 61.663 64.2571C61.7827 63.9712 61.8939 63.6769 62.0052 63.3826C62.2105 62.836 62.3987 62.2811 62.5698 61.7177C62.681 61.3477 62.7922 60.9694 62.8948 60.5826C63.0488 60.0108 63.1857 59.439 63.3055 58.8504C63.3311 58.7075 63.3654 58.573 63.391 58.43C63.5963 57.4378 63.7161 56.4372 63.8359 55.4198Z" fill="white"/>
<g clip-path="url(#clip0)">
<path d="M16.9374 65.8113H18.8123C19.33 65.8113 19.7497 65.3916 19.7497 64.8739V54.5623H16.9374C16.4197 54.5623 16 54.982 16 55.4997V64.8739C16 65.3916 16.4197 65.8113 16.9374 65.8113Z" fill="#B3D4F1"/>
<path d="M39 36.6666C34.0294 36.6666 30 40.5468 30 45.3333C30 50.1197 34.0294 54 39 54C43.9706 54 48 50.1197 48 45.3333C48 40.5468 43.9706 36.6666 39 36.6666Z" fill="#2686D8"/>
<path d="M32.9222 66.3121H33.1284C36.2782 66.2745 39.2966 65.381 41.959 63.7685L47.1898 60.1126C48.0709 59.4938 48.2397 58.3315 47.6585 57.5065C47.0586 56.644 45.8962 56.4379 45.0525 57.0378L40.0279 60.5625C38.4155 61.5 36.447 61.7062 34.6658 61.1062L28.885 59.1938C28.3976 59.0439 28.135 58.5001 28.3038 58.0127C28.4537 57.544 28.9412 57.2816 29.4287 57.4128C29.4474 57.4128 35.9219 59.5126 35.9219 59.5126C37.0122 59.8394 37.9809 59.2225 38.2842 58.3127C38.6029 57.319 38.0592 56.2691 37.0843 55.9504L28.2663 53.0631C26.3375 52.361 23.7384 52.5061 21.623 53.689V64.1833L28.9787 65.8496C30.3262 66.146 31.6483 66.3121 32.9222 66.3121V66.3121Z" fill="#B3D4F1"/>
<path d="M38.7555 46.9342C38.5935 46.9342 38.4621 47.0655 38.4621 47.2275V47.2275C38.4621 47.3895 38.5935 47.5208 38.7555 47.5208H40.2076C40.3733 47.5208 40.5076 47.6551 40.5076 47.8208V48.0904C40.5076 48.256 40.3733 48.3904 40.2076 48.3904H38.7621C38.5964 48.3904 38.4621 48.5247 38.4621 48.6904V49.0332C38.4621 49.1989 38.3278 49.3332 38.1621 49.3332H37.2186C37.0529 49.3332 36.9186 49.1989 36.9186 49.0332V48.6904C36.9186 48.5247 36.7842 48.3904 36.6186 48.3904H36.3C36.1343 48.3904 36 48.256 36 48.0904V47.8208C36 47.6551 36.1343 47.5208 36.3 47.5208H36.6186C36.7842 47.5208 36.9186 47.3865 36.9186 47.2208V42.2999C36.9186 42.1342 37.0529 41.9999 37.2186 41.9999H39.7879C40.6907 41.9999 41.3946 42.2094 41.8996 42.6284C42.411 43.0475 42.6667 43.6621 42.6667 44.4723C42.6667 45.2754 42.411 45.8865 41.8996 46.3056C41.3946 46.7246 40.6907 46.9342 39.7879 46.9342H38.7555ZM41.1136 44.4827C41.1136 44.1265 40.9968 43.8542 40.7633 43.6656C40.536 43.477 40.2077 43.3827 39.7784 43.3827H38.7621C38.5964 43.3827 38.4621 43.517 38.4621 43.6827V45.3037C38.4621 45.4694 38.5964 45.6037 38.7621 45.6037H39.7784C40.2077 45.6037 40.536 45.5094 40.7633 45.3208C40.9968 45.1253 41.1136 44.8459 41.1136 44.4827Z" fill="#F9F9FA"/>
</g>
<defs>
<clipPath id="clip0">
<rect x="16" y="36" width="32" height="32" fill="white"/>
</clipPath>
</defs>
</svg>
