<svg width="33" height="32" viewBox="0 0 33 32" fill="none" xmlns="http://www.w3.org/2000/svg">
<circle cx="17" cy="16" r="12" fill="white"/>
<path fill-rule="evenodd" clip-rule="evenodd" d="M32.6439 15.9406C32.6439 24.7444 25.5071 31.8812 16.7033 31.8812C7.89954 31.8812 0.762695 24.7444 0.762695 15.9406C0.762695 7.13684 7.89954 0 16.7033 0C25.5071 0 32.6439 7.13684 32.6439 15.9406ZM13.2617 7.48372H20.0677C22.8337 7.48372 25.084 9.73404 25.084 12.5001V19.306C25.084 22.0721 22.8337 24.3224 20.0677 24.3224H13.2617C10.4957 24.3224 8.24536 22.0721 8.24536 19.306V12.5001C8.24536 9.73404 10.4957 7.48372 13.2617 7.48372ZM20.0677 22.6284C21.9026 22.6284 23.39 21.1409 23.39 19.306V12.5001C23.39 10.6652 21.9026 9.17769 20.0677 9.17769H13.2617C11.4268 9.17769 9.93933 10.6652 9.93933 12.5001V19.306C9.93933 21.1409 11.4268 22.6284 13.2617 22.6284H20.0677ZM16.6674 11.548C14.266 11.548 12.3123 13.5017 12.3123 15.9031C12.3123 18.3045 14.266 20.2582 16.6674 20.2582C19.0688 20.2582 21.0225 18.3045 21.0225 15.9031C21.0225 13.5017 19.0688 11.548 16.6674 11.548ZM16.6674 18.5642C15.1977 18.5642 14.0063 17.3728 14.0063 15.9031C14.0063 14.4334 15.1977 13.242 16.6674 13.242C18.1371 13.242 19.3285 14.4334 19.3285 15.9031C19.3285 17.3728 18.1371 18.5642 16.6674 18.5642ZM22.0709 11.5811C22.0709 12.1574 21.6037 12.6246 21.0274 12.6246C20.451 12.6246 19.9838 12.1574 19.9838 11.5811C19.9838 11.0047 20.451 10.5375 21.0274 10.5375C21.6037 10.5375 22.0709 11.0047 22.0709 11.5811Z" fill="#8C3AC3"/>
</svg>
