<svg width="49" height="65" viewBox="0 0 49 65" fill="none" xmlns="http://www.w3.org/2000/svg">
    <path d="M35.6481 15.314C35.5319 24.0171 30.7474 31.5971 23.6707 35.6919C23.6514 35.6983 23.6384 35.7112 23.6255 35.7176C23.548 35.7625 23.4706 35.8074 23.3866 35.8524C17.8596 39.0551 13.7337 44.3822 12.1324 50.6978C11.6546 52.5719 11.4028 54.5359 11.4028 56.5577C11.4028 57.9761 11.5254 59.3753 11.7643 60.7231C7.05085 57.9183 3.37692 53.5603 1.4657 48.3616C1.08475 47.3282 0.774819 46.2564 0.535916 45.1588C0.258273 43.8688 0.0839388 42.5402 0.0258274 41.1795C0.00645692 40.8265 0 40.4671 0 40.1141C0 39.4466 0.025827 38.7855 0.0839384 38.1309C0.135593 37.4698 0.219532 36.8215 0.322841 36.1797C0.962067 32.3288 2.51816 28.7859 4.76514 25.7821L17.8015 8.44001L19.4415 6.26422L20.9847 4.21038L24.1485 0L28.339 5.58388L32.678 11.3603L33.8854 12.9713C33.8854 12.9713 33.8919 12.9713 33.8919 12.9777L35.6481 15.314Z"
          fill="#1E3146"/>
    <path d="M48.1788 42.3041C49.1279 33.6588 44.3111 26.9132 44.3111 26.9132C44.3176 27.1186 44.3305 27.3239 44.3369 27.5293C44.3434 27.7347 44.3434 27.9401 44.3434 28.1455C44.3434 31.9708 43.4395 35.5842 41.8382 38.7934C40.2369 41.9961 37.9318 44.8008 35.1231 46.9895C35.0391 47.0537 34.9552 47.1178 34.8648 47.1884C34.7808 47.2526 34.6905 47.3168 34.6065 47.381C34.2062 47.6762 33.793 47.965 33.3733 48.2346C32.9536 48.5042 32.521 48.7673 32.0819 49.0112C32.14 48.947 32.1981 48.8764 32.2562 48.8123C32.3143 48.7481 32.3789 48.6839 32.4435 48.6197C32.4693 48.5876 32.4951 48.5619 32.521 48.5299C32.5468 48.4978 32.5791 48.4721 32.6049 48.44C32.6759 48.3694 32.7405 48.2924 32.818 48.2218C32.889 48.1512 32.96 48.0806 33.031 48.01C33.031 48.01 33.0375 48.01 33.0375 48.0036C33.0375 48.0036 33.044 48.0036 33.044 47.9971C33.2118 47.8495 33.3797 47.6955 33.5411 47.5414C33.709 47.3874 33.8704 47.2334 34.0319 47.0729V47.0665C34.0319 47.0665 34.0319 47.0665 34.0383 47.0665C35.5298 45.5903 36.8212 43.928 37.8866 42.1052C38.952 40.2888 39.7784 38.3184 40.3337 36.2325C40.4629 35.7447 40.5791 35.2441 40.6759 34.7434C40.7792 34.2428 40.8567 33.7358 40.9277 33.2223C40.9923 32.7089 41.044 32.1954 41.0827 31.6691C41.115 31.1492 41.1344 30.6229 41.1344 30.0902C41.1344 28.0749 40.8825 26.1173 40.4112 24.2432C39.9398 22.3755 39.2425 20.5912 38.3579 18.9224L38.3386 18.8968L38.3192 18.8711C38.3063 21.4448 37.8866 23.9223 37.1118 26.2393C36.3434 28.5562 35.2264 30.7256 33.8252 32.6639C32.8632 33.9989 31.772 35.2248 30.5645 36.3352C29.3571 37.4455 28.0335 38.4339 26.6194 39.2747C26.6 39.2811 26.5871 39.294 26.5678 39.3004C26.5484 39.3068 26.5355 39.3197 26.5161 39.3261C26.4451 39.3646 26.3805 39.4031 26.3159 39.4416C26.2514 39.4801 26.1868 39.5186 26.1158 39.5571C24.96 40.2503 23.8624 41.0333 22.8422 41.9062C21.8285 42.7919 20.8793 43.7418 20.0205 44.7688C18.2966 46.8226 16.9083 49.1653 15.9463 51.7133C15.8042 52.0791 15.6751 52.4578 15.5524 52.8301C15.4297 53.2088 15.32 53.5874 15.2167 53.9725C15.1521 54.21 15.094 54.4539 15.0359 54.6914C14.9842 54.9353 14.9261 55.1792 14.8809 55.4231C14.7259 56.1804 14.6097 56.957 14.5322 57.7336C14.4548 58.5167 14.416 59.3125 14.416 60.1148C14.416 60.455 14.4225 60.7887 14.4354 61.1289C14.4483 61.4626 14.4677 61.7964 14.5 62.1301C15.9721 62.772 17.5282 63.2662 19.1424 63.6063C20.7502 63.9401 22.4225 64.1198 24.1335 64.1198C24.3595 64.1198 24.5855 64.1198 24.805 64.1134C25.031 64.107 25.2506 64.1005 25.4766 64.0877C25.554 64.0813 25.6315 64.0813 25.709 64.0749C25.7865 64.0684 25.864 64.0685 25.9415 64.0556L27.3103 63.8759L28.6791 63.6962C29.7251 63.4972 30.7518 63.2341 31.7461 62.9003C31.8882 62.8554 32.0302 62.8041 32.1723 62.7527C32.4564 62.65 32.734 62.5473 33.0117 62.4382C33.567 62.22 34.1093 61.9825 34.6453 61.7258C35.5815 61.2765 36.479 60.7695 37.3378 60.2047C37.8285 59.8837 38.3127 59.5436 38.7776 59.1906C39.0101 59.0109 39.2425 58.8312 39.4685 58.645C40.0367 58.1829 40.5791 57.6951 41.1021 57.1817C41.6251 56.6682 42.1223 56.1355 42.5936 55.5771C42.6905 55.468 42.7809 55.3525 42.8777 55.2433C42.9681 55.1278 43.0585 55.0187 43.1489 54.9032C43.9625 53.8698 44.6921 52.7659 45.3313 51.6042C45.4023 51.4758 45.4669 51.3475 45.5379 51.2191C45.6089 51.0907 45.6735 50.956 45.7381 50.8276C45.8026 50.6928 45.8672 50.5644 45.9318 50.4297C46.0609 50.1665 46.1836 49.8969 46.2998 49.621C46.3579 49.4862 46.416 49.3514 46.4742 49.2102C46.5 49.1588 46.5194 49.1011 46.5387 49.0497C46.6291 48.8315 46.7131 48.6069 46.797 48.3822C46.952 47.965 47.094 47.5414 47.2232 47.1114C47.3071 46.829 47.391 46.5402 47.4685 46.245C47.5847 45.8085 47.688 45.3721 47.7784 44.9228C47.7978 44.8137 47.8236 44.711 47.843 44.6019C47.998 43.8445 48.0884 43.0808 48.1788 42.3041Z"
          fill="#2686D8"/>
</svg>
