<svg width="32" height="32" viewBox="0 0 32 32" fill="none" xmlns="http://www.w3.org/2000/svg">
<path d="M29.3399 20.0542C28.0435 19.4997 26.5662 19.6318 25.3884 20.4074C24.3837 21.0692 23.2394 21.4103 22.0696 21.4103C21.6107 21.4103 21.148 21.3578 20.6882 21.2516C19.0561 20.8747 17.6874 19.8732 16.8341 18.4318L15.2534 15.7613L10.6157 11.1236C9.35049 9.85841 8.58561 8.22629 8.41993 6.46716C6.74611 7.55866 5.31936 9.00079 4.2443 10.7037C4.10418 10.9256 3.97105 11.1512 3.84424 11.3798L8.6398 13.265C11.2803 14.303 12.8394 17.0845 12.3469 19.8787L12.2052 20.6823C12.0031 21.8295 12.2986 23.0137 13.0163 23.9312C13.7339 24.8487 14.8119 25.4209 15.9741 25.501C17.8673 25.6316 19.6042 26.6665 20.6204 28.2693L22.0965 30.5975C23.4597 29.9306 24.7181 29.0359 25.8227 27.9312C27.9414 25.8125 29.2909 23.1299 29.7321 20.2218L29.3399 20.0542Z" fill="#B3D4F1"/>
<path d="M17.1772 15.3305L18.4477 17.4767C19.0371 18.4725 19.9827 19.1643 21.1102 19.4247C22.2375 19.6851 23.3907 19.4779 24.3572 18.8415C26.0054 17.7559 28.0591 17.5414 29.8897 18.2538C29.8902 18.2054 29.8914 18.157 29.8914 18.1085C29.8914 15.4776 29.1529 12.9171 27.7556 10.7038C26.6806 9.00085 25.2537 7.55866 23.5799 6.46716C23.4142 8.22629 22.6494 9.85841 21.3841 11.1236L17.1772 15.3305Z" fill="#B3D4F1"/>
<path d="M16 31.9999C17.4936 31.9999 18.9512 31.7654 20.331 31.3144L19.0369 29.2732C18.3389 28.1722 17.1456 27.4613 15.8451 27.3716C14.1535 27.2549 12.5841 26.422 11.5395 25.0863C10.4948 23.7506 10.0645 22.0268 10.3588 20.3569L10.5004 19.5532C10.8387 17.6337 9.76771 15.7231 7.95383 15.01L3.0469 13.0809C2.42902 14.6735 2.10852 16.3757 2.10852 18.1084C2.10852 21.819 3.55346 25.3074 6.17727 27.9312C8.8009 30.5549 12.2894 31.9999 16 31.9999Z" fill="#2686D8"/>
<path d="M10.2605 5.73944C10.2605 7.2725 10.8575 8.71381 11.9415 9.79775L15.9999 13.8561L20.0583 9.79775C21.1423 8.71381 21.7393 7.2725 21.7393 5.73944C21.7393 2.57469 19.1646 0 15.9999 0C12.8351 0 10.2605 2.57469 10.2605 5.73944ZM15.9999 2.34206C17.8733 2.34206 19.3973 3.86619 19.3973 5.7395C19.3973 7.61281 17.8733 9.137 15.9999 9.137C14.1265 9.137 12.6024 7.61287 12.6024 5.73956C12.6024 3.86625 14.1265 2.34206 15.9999 2.34206Z" fill="#2686D8"/>
<path d="M16 7.26204C16.8408 7.26204 17.5224 6.58042 17.5224 5.7396C17.5224 4.89878 16.8408 4.21716 16 4.21716C15.1592 4.21716 14.4775 4.89878 14.4775 5.7396C14.4775 6.58042 15.1592 7.26204 16 7.26204Z" fill="#2686D8"/>
</svg>
