<svg width="32" height="32" viewBox="0 0 32 32" fill="none" xmlns="http://www.w3.org/2000/svg">
<g clip-path="url(#clip0)">
<path d="M0.937425 29.8113H2.81227C3.32998 29.8113 3.7497 29.3916 3.7497 28.8739V18.5623H0.937425C0.419716 18.5623 0 18.982 0 19.4997V28.8739C0 29.3916 0.419716 29.8113 0.937425 29.8113Z" fill="#B3D4F1"/>
<path d="M22.9999 0.666626C18.0293 0.666626 13.9999 4.54677 13.9999 9.33329C13.9999 14.1197 18.0293 18 22.9999 18C27.9705 18 31.9999 14.1197 31.9999 9.33329C31.9999 4.54677 27.9705 0.666626 22.9999 0.666626Z" fill="#2686D8"/>
<path d="M16.9231 30.3121H17.1293C20.279 30.2745 23.2975 29.381 25.9599 27.7685L31.1907 24.1126C32.0718 23.4938 32.2406 22.3315 31.6594 21.5065C31.0594 20.644 29.897 20.4379 29.0533 21.0378L24.0287 24.5625C22.4164 25.5 20.4478 25.7062 18.6667 25.1062L12.8859 23.1938C12.3984 23.0439 12.1359 22.5001 12.3047 22.0127C12.4546 21.544 12.9421 21.2816 13.4295 21.4128C13.4483 21.4128 19.9228 23.5126 19.9228 23.5126C21.013 23.8394 21.9817 23.2225 22.2851 22.3127C22.6037 21.319 22.0601 20.2691 21.0852 19.9504L12.2671 17.0631C10.3384 16.361 7.73929 16.5061 5.6239 17.689V28.1833L12.9796 29.8496C14.327 30.146 15.6492 30.3121 16.9231 30.3121Z" fill="#B3D4F1"/>
<path d="M22.7556 10.9342C22.5936 10.9342 22.4622 11.0655 22.4622 11.2275C22.4622 11.3895 22.5936 11.5208 22.7556 11.5208H24.2077C24.3734 11.5208 24.5077 11.6551 24.5077 11.8208V12.0904C24.5077 12.256 24.3734 12.3904 24.2077 12.3904H22.7622C22.5966 12.3904 22.4622 12.5247 22.4622 12.6904V13.0332C22.4622 13.1989 22.3279 13.3332 22.1622 13.3332H21.2187C21.053 13.3332 20.9187 13.1989 20.9187 13.0332V12.6904C20.9187 12.5247 20.7844 12.3904 20.6187 12.3904H20.3001C20.1344 12.3904 20.0001 12.256 20.0001 12.0904V11.8208C20.0001 11.6551 20.1344 11.5208 20.3001 11.5208H20.6187C20.7844 11.5208 20.9187 11.3865 20.9187 11.2208V6.29988C20.9187 6.13419 21.053 5.99988 21.2187 5.99988H23.788C24.6908 5.99988 25.3947 6.2094 25.8997 6.62845C26.4111 7.0475 26.6668 7.6621 26.6668 8.47226C26.6668 9.27543 26.4111 9.88654 25.8997 10.3056C25.3947 10.7246 24.6908 10.9342 23.788 10.9342H22.7556ZM25.1138 8.48274C25.1138 8.12655 24.997 7.85416 24.7634 7.66559C24.5361 7.47702 24.2078 7.38274 23.7785 7.38274H22.7622C22.5966 7.38274 22.4622 7.51705 22.4622 7.68274V9.30369C22.4622 9.46937 22.5966 9.60369 22.7622 9.60369H23.7785C24.2078 9.60369 24.5361 9.5094 24.7634 9.32083C24.997 9.12528 25.1138 8.84591 25.1138 8.48274Z" fill="#F9F9FA"/>
</g>
<defs>
<clipPath id="clip0">
<rect width="32" height="32" fill="white"/>
</clipPath>
</defs>
</svg>
