<svg width="32" height="32" viewBox="0 0 32 32" fill="none" xmlns="http://www.w3.org/2000/svg">
<path d="M16.5016 30C24.0543 30 30 23.8929 30 16.5C30 8.94643 24.0543 3 16.5016 3C8.94885 3 2.8424 9.10714 3.0031 16.6607C3.0031 24.0536 8.94885 30 16.5016 30Z" fill="white"/>
<path d="M15.9406 13.2021C17.4727 13.2021 18.6788 11.9634 18.6788 10.4638C18.6788 8.93172 17.4727 7.72559 15.9406 7.72559C14.4084 7.72559 13.1697 8.96432 13.2023 10.4964C13.2023 11.996 14.4084 13.2021 15.9406 13.2021Z" fill="#F58220"/>
<path d="M15.9406 0C7.13904 0 0 7.13904 0 15.9406C0 24.7421 7.13904 31.8812 15.9406 31.8812C24.7421 31.8812 31.8812 24.7421 31.8812 15.9406C31.8812 7.13904 24.7421 0 15.9406 0ZM15.9406 4.85715C19.0374 4.85715 21.5475 7.39982 21.5149 10.5293C21.5149 13.5935 18.9722 16.071 15.8754 16.071C12.8112 16.071 10.3011 13.5283 10.3011 10.4315C10.3337 7.33463 12.8438 4.82456 15.9406 4.85715ZM22.2321 18.2877C21.5475 19.0048 20.7326 19.4938 19.7872 19.8524C18.907 20.1784 17.9617 20.374 17.0163 20.4718C17.1467 20.6348 17.2119 20.7 17.3097 20.7977C18.5811 22.0691 19.885 23.373 21.1563 24.6444C21.5801 25.0681 21.6779 25.6223 21.4497 26.1439C21.1889 26.698 20.6022 27.0566 20.0154 27.024C19.6568 26.9914 19.3634 26.8284 19.1026 26.5677C18.1247 25.5897 17.1467 24.6444 16.2014 23.6664C15.9406 23.373 15.8102 23.4382 15.5494 23.699C14.5715 24.7095 13.5935 25.6875 12.6156 26.6655C12.1592 27.0892 11.6376 27.187 11.116 26.9262C10.5619 26.6654 10.2033 26.1113 10.2359 25.5245C10.2685 25.1333 10.4315 24.8399 10.6923 24.5792C11.9636 23.3078 13.2023 22.0691 14.4737 20.7977C14.5715 20.7 14.6367 20.6348 14.7671 20.5044C13.0393 20.3088 11.5072 19.9176 10.1707 18.8744C10.0077 18.7441 9.8447 18.6137 9.68171 18.4833C9.09494 17.9291 9.02974 17.2771 9.48612 16.6252C9.8773 16.071 10.5293 15.908 11.2138 16.234C11.3442 16.2992 11.4746 16.3644 11.605 16.4622C14.0825 18.1573 17.4727 18.2225 19.9502 16.5274C20.211 16.3318 20.4718 16.2014 20.7651 16.1036C21.3519 15.9406 21.9061 16.1688 22.2321 16.6904C22.6884 17.2445 22.6884 17.7987 22.2321 18.2877Z" fill="#F58220"/>
</svg>
