<svg width="32" height="32" viewBox="0 0 32 32" fill="none" xmlns="http://www.w3.org/2000/svg">
<path d="M14.0024 0C9.53368 0 5.88074 3.65294 5.88074 8.12164C5.88074 12.5903 9.53368 16.2433 14.0024 16.2433C18.4711 16.2433 22.124 12.5903 22.124 8.12164C22.124 3.65294 18.4711 0 14.0024 0Z" fill="#B3D4F1"/>
<path d="M27.9402 22.7333C27.7273 22.2013 27.4437 21.7048 27.1245 21.2437C25.493 18.832 22.975 17.2361 20.1378 16.846C19.7831 16.8106 19.393 16.8814 19.1093 17.0942C17.6197 18.1937 15.8465 18.7611 14.0022 18.7611C12.1579 18.7611 10.3847 18.1937 8.89512 17.0942C8.61137 16.8814 8.22124 16.775 7.86662 16.846C5.02936 17.2361 2.47586 18.832 0.879923 21.2437C0.560736 21.7048 0.276983 22.2368 0.0642364 22.7333C-0.0421369 22.9461 -0.00670182 23.1944 0.0996715 23.4072C0.383424 23.9037 0.738047 24.4002 1.05723 24.8258C1.55373 25.4997 2.08574 26.1026 2.68868 26.67C3.18518 27.1665 3.75261 27.6276 4.32012 28.0886C7.12187 30.1811 10.4911 31.2805 13.9668 31.2805C17.4424 31.2805 20.8116 30.1811 23.6134 28.0886C24.1808 27.6631 24.7483 27.1665 25.2448 26.67C25.8123 26.1026 26.3797 25.4996 26.8763 24.8258C27.2309 24.3647 27.5502 23.9037 27.8338 23.4072C28.0111 23.1944 28.0465 22.9461 27.9402 22.7333Z" fill="#B3D4F1"/>
<path d="M26.4584 21.4843L26.4583 21.4844L26.4584 21.4843ZM26.429 21.4551C26.429 21.4551 26.429 21.4551 26.429 21.4551L26.429 21.4551ZM23.3601 16C19.3008 16 16 19.3008 16 23.3599C16 27.4192 19.3008 30.72 23.3601 30.72C27.4192 30.72 30.72 27.4192 30.72 23.3599C30.72 19.3008 27.4192 16 23.3601 16Z" fill="#2686D8" stroke="#F6FAFE" stroke-width="2"/>
</svg>
