<svg width="32" height="32" viewBox="0 0 32 32" fill="none" xmlns="http://www.w3.org/2000/svg">
<path d="M16 0C7.17769 0 0 7.17769 0 16C0 24.8223 7.17769 32 16 32C24.8223 32 32 24.8223 32 16C32 7.17769 24.8223 0 16 0ZM16 29.9131C8.32812 29.9131 2.08694 23.6715 2.08694 16C2.08694 8.3285 8.32812 2.08694 16 2.08694C23.6719 2.08694 29.9131 8.3285 29.9131 16C29.9131 23.6715 23.6719 29.9131 16 29.9131Z" fill="#B3D4F1"/>
<path d="M16 4.17395C9.47895 4.17395 4.17395 9.47895 4.17395 16C4.17395 22.5211 9.47895 27.8261 16 27.8261C22.5211 27.8261 27.8261 22.5211 27.8261 16C27.8261 9.47895 22.5211 4.17395 16 4.17395ZM14.9565 9.39133C14.9565 8.81489 15.4236 8.34783 16 8.34783C16.5765 8.34783 17.0435 8.81489 17.0435 9.39133V16C17.0435 16.5765 16.5765 17.0435 16 17.0435C15.4236 17.0435 14.9565 16.5765 14.9565 16V9.39133ZM16 23.6491C11.7823 23.6491 8.35089 20.2178 8.35089 16C8.35089 13.9538 9.14576 12.0323 10.5893 10.589C10.9969 10.1821 11.6576 10.1818 12.0652 10.5894C12.4725 10.997 12.4725 11.6576 12.0648 12.0653C11.0156 13.1141 10.4378 14.5116 10.4378 16.0001C10.4378 19.067 12.933 21.5623 16 21.5623C19.0669 21.5623 21.5621 19.067 21.5621 16.0001C21.5621 14.5113 20.9843 13.1139 19.9355 12.0653C19.5279 11.6577 19.5279 10.997 19.9351 10.5894C20.3426 10.1818 21.0033 10.1821 21.411 10.589C22.8542 12.0319 23.6491 13.9538 23.6491 16C23.6491 20.2178 20.2178 23.6491 16 23.6491Z" fill="#2686D8"/>
</svg>
