<svg width="32" height="32" viewBox="0 0 32 32" fill="none" xmlns="http://www.w3.org/2000/svg">
<g clip-path="url(#clip0)">
<circle cx="15.9994" cy="16.0004" r="10.6" fill="#F9F9FA"/>
<path d="M15.9987 9.64014C12.4916 9.64014 9.63855 12.4932 9.63855 16C9.63855 19.5071 12.4916 22.3601 15.9987 22.3601C19.5055 22.3601 22.3585 19.5071 22.3585 16C22.3585 12.4932 19.5055 9.64014 15.9987 9.64014ZM19.7747 14.8023L15.2184 19.3586C15.0271 19.5499 14.7763 19.6456 14.5257 19.6456C14.2751 19.6456 14.0245 19.5501 13.8332 19.3586L12.092 17.6174C11.7095 17.2352 11.7095 16.615 12.092 16.2325C12.4743 15.85 13.0944 15.85 13.4769 16.2325L14.5257 17.2813L18.3898 13.4174C18.772 13.0349 19.3922 13.0349 19.7747 13.4174C20.1572 13.7997 20.1572 14.4198 19.7747 14.8023Z" fill="#2686D8"/>
<path d="M29.5938 8.68217L29.5928 8.65726C29.5789 8.34989 29.5697 8.0247 29.564 7.66288C29.5379 5.89848 28.1353 4.43901 26.3707 4.34038C22.6915 4.13506 19.8453 2.93536 17.4134 0.565001L17.3927 0.545225C16.5995 -0.182067 15.4029 -0.182067 14.6095 0.545225L14.5887 0.565001C12.1569 2.93536 9.31068 4.13506 5.63149 4.34062C3.86709 4.43901 2.46426 5.89848 2.43814 7.66313C2.43277 8.0225 2.42324 8.34769 2.40933 8.65726L2.40786 8.71512C2.33633 12.4668 2.24746 17.136 3.80947 21.374C4.66836 23.7046 5.96913 25.7305 7.67543 27.3957C9.61878 29.2922 12.1642 30.7978 15.2408 31.8706C15.3409 31.9055 15.4449 31.9338 15.5509 31.955C15.7003 31.9848 15.8507 31.9997 16.0011 31.9997C16.1515 31.9997 16.3021 31.9848 16.4513 31.955C16.5572 31.9338 16.662 31.9052 16.7626 31.8701C19.8355 30.7954 22.3783 29.289 24.3199 27.3928C26.0255 25.727 27.3262 23.7007 28.1859 21.3696C29.7537 17.1189 29.6651 12.4409 29.5938 8.68217ZM16.0006 23.9751C11.6031 23.9751 8.02577 20.3977 8.02577 16.0003C8.02577 11.6028 11.6031 8.02543 16.0006 8.02543C20.3978 8.02543 23.9754 11.6028 23.9754 16.0003C23.9754 20.3977 20.3978 23.9751 16.0006 23.9751Z" fill="#B3D4F1"/>
</g>
<defs>
<clipPath id="clip0">
<rect width="32" height="32" fill="white"/>
</clipPath>
</defs>
</svg>
