<svg width="34" height="34" viewBox="0 0 34 34" fill="none" xmlns="http://www.w3.org/2000/svg">
<g clip-path="url(#clip0)">
<path d="M15.0939 25.2727C15.0939 19.6584 19.663 15.0909 25.2779 15.0909C26.406 15.0909 27.5341 15.2855 28.6323 15.669C28.7105 15.696 28.7915 15.7095 28.8725 15.7095C28.8838 15.7102 28.8938 15.7095 28.9009 15.7095C29.303 15.7095 29.6283 15.3842 29.6283 14.9822C29.6283 14.8935 29.6127 14.8082 29.5843 14.7294C29.0231 7.57455 23.0175 2 15.8213 2C8.20026 2 2 8.19889 2 15.8182C2 23.0831 7.6831 29.1336 14.9389 29.5931C14.9531 29.5937 14.9688 29.5945 14.9844 29.5945C15.2117 29.5945 15.4263 29.4887 15.5641 29.3068C15.7119 29.1129 15.7517 28.858 15.6707 28.6279C15.2884 27.5306 15.0939 26.4013 15.0939 25.2727ZM11.9687 20.696C11.8267 20.838 11.6406 20.9091 11.4545 20.9091C11.2684 20.9091 11.0824 20.838 10.9403 20.696C10.6562 20.4119 10.6562 19.9517 10.9403 19.6676L15.0909 15.5171V7.09094C15.0909 6.68893 15.4162 6.36364 15.8182 6.36364C16.2202 6.36364 16.5455 6.68893 16.5455 7.09094V15.8182C16.5455 16.0114 16.4688 16.1961 16.3324 16.3324L11.9687 20.696Z" fill="#2686D8"/>
<path d="M25.273 16.5453C20.4605 16.5453 16.5457 20.4601 16.5457 25.2726C16.5457 30.085 20.4605 33.9998 25.273 33.9998C30.0855 33.9998 34.0003 30.085 34.0003 25.2726C34.0003 20.4601 30.0855 16.5453 25.273 16.5453Z" fill="#B3D4F1"/>
<path d="M25.0018 26.9344C24.8398 26.9344 24.7085 27.0657 24.7085 27.2277C24.7085 27.3897 24.8398 27.5211 25.0018 27.5211H26.6585C26.8241 27.5211 26.9585 27.6554 26.9585 27.8211V28.0906C26.9585 28.2563 26.8241 28.3906 26.6585 28.3906H25.0085C24.8428 28.3906 24.7085 28.5249 24.7085 28.6906V29.0335C24.7085 29.1991 24.5741 29.3335 24.4085 29.3335H23.3105C23.1449 29.3335 23.0105 29.1991 23.0105 29.0335V28.6906C23.0105 28.5249 22.8762 28.3906 22.7105 28.3906H22.3001C22.1344 28.3906 22.0001 28.2563 22.0001 28.0906V27.8211C22.0001 27.6554 22.1344 27.5211 22.3001 27.5211H22.7105C22.8762 27.5211 23.0105 27.3868 23.0105 27.2211V22.3001C23.0105 22.1344 23.1449 22.0001 23.3105 22.0001H26.1668C27.1598 22.0001 27.9341 22.2096 28.4897 22.6287C29.0522 23.0477 29.3335 23.6623 29.3335 24.4725C29.3335 25.2757 29.0522 25.8868 28.4897 26.3058C27.9341 26.7249 27.1598 26.9344 26.1668 26.9344H25.0018ZM27.6251 24.483C27.6251 24.1268 27.4966 23.8544 27.2397 23.6658C26.9897 23.4773 26.6286 23.383 26.1564 23.383H25.0085C24.8428 23.383 24.7085 23.5173 24.7085 23.683V25.3039C24.7085 25.4696 24.8428 25.6039 25.0085 25.6039H26.1564C26.6286 25.6039 26.9897 25.5096 27.2397 25.3211C27.4966 25.1255 27.6251 24.8462 27.6251 24.483Z" fill="#F9F9FA"/>
</g>
<defs>
<clipPath id="clip0">
<rect width="32" height="32" fill="white" transform="translate(2 2)"/>
</clipPath>
</defs>
</svg>
