<svg width="32" height="32" viewBox="0 0 32 32" fill="none" xmlns="http://www.w3.org/2000/svg">
<path d="M0 13.675V21.1187C0 23.2623 1.75202 25 3.91329 25H25.0867C27.248 25 29 23.2623 29 21.1187V13.675C29 13.3022 28.6953 13 28.3194 13H0.680573C0.304726 13 0 13.3022 0 13.675ZM7.24056 18.4H5.4257C4.76792 18.4 4.23469 17.8711 4.23469 17.2188C4.23469 16.5664 4.76792 16.0375 5.4257 16.0375H7.24056C7.89833 16.0375 8.43156 16.5664 8.43156 17.2188C8.43156 17.8711 7.89833 18.4 7.24056 18.4Z" fill="#B3D4F1"/>
<path d="M29 10.1562V9.85158C29 7.1721 27.248 5 25.0867 5H3.91329C1.75202 5 0 7.1721 0 9.85158V10.1562C0 10.6222 0.304726 11 0.680573 11H28.3194C28.6953 11 29 10.6222 29 10.1562Z" fill="#B3D4F1"/>
<path d="M26.4584 21.4843L26.4583 21.4844L26.4584 21.4843ZM26.429 21.4551C26.429 21.4551 26.429 21.4551 26.429 21.4551L26.429 21.4551ZM23.3601 16C19.3008 16 16 19.3008 16 23.3599C16 27.4192 19.3008 30.72 23.3601 30.72C27.4192 30.72 30.72 27.4192 30.72 23.3599C30.72 19.3008 27.4192 16 23.3601 16Z" fill="#2686D8" stroke="white" stroke-width="2"/>
</svg>
