<svg width="33" height="32" viewBox="0 0 33 32" fill="none" xmlns="http://www.w3.org/2000/svg">
<path d="M32.8813 16C32.8813 24.8366 25.7179 32 16.8813 32C8.04479 32 0.881348 24.8366 0.881348 16C0.881348 7.16344 8.04479 0 16.8813 0C25.7179 0 32.8813 7.16344 32.8813 16Z" fill="#00A6E2"/>
<path d="M26.3055 18.1225C27.7538 11.6142 22.0522 5.70165 15.3563 6.83665C11.7213 4.58082 6.88135 7.12999 6.88135 11.455C6.88135 12.4608 7.15885 13.4025 7.64135 14.2142C6.29551 20.7375 12.0438 26.565 18.7338 25.3525C19.5138 25.765 20.4038 26 21.3497 26C25.4738 26 28.1147 21.7225 26.3055 18.1225ZM16.9613 22.5658C15.0097 22.5658 13.103 22.095 11.9747 20.4833C10.293 18.105 12.5105 16.915 13.5988 17.8217C14.5072 18.5875 14.2222 20.44 16.8897 20.44C18.0655 20.44 19.5172 19.9383 19.5172 18.7725C19.5172 16.4267 14.313 17.5367 12.2438 14.9792C11.4838 14.0425 11.3405 12.39 12.2738 11.1917C13.9005 9.09832 18.6738 8.97082 20.7263 10.5517C22.6213 12.0183 22.1097 13.965 20.5805 13.965C18.7413 13.965 19.708 11.5583 16.7388 11.5583C14.5863 11.5583 13.7397 13.0892 15.2555 13.8342C17.273 14.8358 22.5472 14.5233 22.5472 18.5033C22.5405 21.3008 19.8413 22.5658 16.9613 22.5658Z" fill="white"/>
</svg>
