<svg width="32" height="32" viewBox="0 0 32 32" fill="none" xmlns="http://www.w3.org/2000/svg">
<path d="M15.9406 31.8812C24.7443 31.8812 31.8812 24.7443 31.8812 15.9406C31.8812 7.13685 24.7443 0 15.9406 0C7.13685 0 0 7.13685 0 15.9406C0 24.7443 7.13685 31.8812 15.9406 31.8812Z" fill="#28A8E9"/>
<path d="M7.29377 15.5951L22.6632 9.66921C23.3765 9.4115 23.9995 9.84323 23.7684 10.9219L23.7697 10.9205L21.1528 23.2493C20.9588 24.1233 20.4395 24.3359 19.7128 23.9241L15.7277 20.987L13.8055 22.8388C13.593 23.0513 13.4136 23.2307 13.0018 23.2307L13.2848 19.1751L20.6706 12.5026C20.9921 12.2197 20.5989 12.0603 20.1751 12.3419L11.0478 18.0885L7.11311 16.8611C6.25896 16.5901 6.24037 16.0069 7.29377 15.5951Z" fill="white"/>
</svg>
