<svg width="32" height="32" viewBox="0 0 32 32" fill="none" xmlns="http://www.w3.org/2000/svg">
<path d="M15.5839 4.57129C8.02182 4.57129 1.86951 10.7235 1.86951 18.2856C1.86951 25.8477 8.02182 32 15.5839 32C23.146 32 29.2982 25.8477 29.2982 18.2856C29.2982 10.7236 23.146 4.57129 15.5839 4.57129ZM15.5839 27.4285C10.5425 27.4285 6.44096 23.327 6.44096 18.2856C6.44096 13.2443 10.5425 9.14274 15.5839 9.14274C20.6252 9.14274 24.7268 13.2443 24.7268 18.2856C24.7268 23.327 20.6252 27.4285 15.5839 27.4285Z" fill="#B3D4F1"/>
<path d="M17.8716 0H13.3002V2.28572H17.8716V0Z" fill="#2686D8"/>
<path d="M26.8979 3.7407L25.2816 5.35693L28.514 8.58936L30.1303 6.97312L26.8979 3.7407Z" fill="#2686D8"/>
<path d="M15.5847 11.4285V18.2866H22.4429C22.4418 14.506 19.3656 11.4285 15.5847 11.4285Z" fill="#2686D8"/>
</svg>
