<svg width="33" height="32" viewBox="0 0 33 32" fill="none" xmlns="http://www.w3.org/2000/svg">
<path d="M32.8813 16C32.8813 24.8366 25.7179 32 16.8813 32C8.04479 32 0.881348 24.8366 0.881348 16C0.881348 7.16344 8.04479 0 16.8813 0C25.7179 0 32.8813 7.16344 32.8813 16Z" fill="#645CAC"/>
<path d="M22.5681 14.7145C22.5874 12.4587 20.6661 10.3908 18.2853 10.1048C18.238 10.0992 18.1864 10.0906 18.1318 10.0816C18.0139 10.0621 17.892 10.042 17.7691 10.042C17.2811 10.042 17.1507 10.3847 17.1164 10.5892C17.0829 10.7879 17.1148 10.9548 17.2109 11.0855C17.3724 11.3052 17.6568 11.3442 17.8851 11.3755C17.9521 11.3847 18.0152 11.3933 18.0681 11.4052C20.2071 11.8832 20.9274 12.6346 21.2794 14.7554C21.288 14.8073 21.2918 14.8711 21.296 14.9388C21.3113 15.1924 21.3433 15.7198 21.9104 15.7198H21.9104C21.9576 15.7198 22.0084 15.7158 22.0612 15.7077C22.5892 15.6274 22.5727 15.1453 22.5647 14.9137C22.5625 14.8484 22.5604 14.7867 22.5659 14.7457C22.5673 14.7353 22.5681 14.7249 22.5681 14.7145Z" fill="white"/>
<path d="M17.6305 9.27643C17.6939 9.281 17.7539 9.28537 17.8038 9.29303C21.3163 9.83321 22.9316 11.4974 23.3793 15.0373C23.3869 15.0975 23.3881 15.1709 23.3893 15.2486C23.3938 15.5252 23.403 16.1006 24.0209 16.1125L24.04 16.1127C24.2338 16.1127 24.388 16.0542 24.4982 15.9388C24.6906 15.7377 24.6772 15.4388 24.6663 15.1986C24.6637 15.1396 24.6612 15.0841 24.6618 15.0355C24.7065 11.4151 21.5726 8.13206 17.9554 8.01C17.9404 8.0095 17.926 8.01031 17.9116 8.01234C17.9045 8.01337 17.8913 8.01469 17.8687 8.01469C17.8327 8.01469 17.7883 8.01156 17.7412 8.00837C17.6843 8.00447 17.6198 8 17.5544 8C16.9784 8 16.8689 8.40944 16.8549 8.6535C16.8226 9.21759 17.3683 9.25728 17.6305 9.27643Z" fill="white"/>
<path d="M23.2096 19.6131C23.1349 19.5561 23.0577 19.4971 22.9854 19.4388C22.6019 19.1302 22.1939 18.8457 21.7993 18.5706C21.7174 18.5136 21.6355 18.4565 21.5539 18.3992C21.0485 18.0442 20.5941 17.8717 20.1648 17.8717C19.5865 17.8717 19.0824 18.1912 18.6663 18.8212C18.482 19.1005 18.2583 19.2363 17.9827 19.2363C17.8197 19.2363 17.6345 19.1898 17.4323 19.098C15.8009 18.3582 14.6359 17.2239 13.9697 15.7266C13.6477 15.0029 13.7521 14.5298 14.3189 14.1448C14.6407 13.9264 15.2398 13.5197 15.1973 12.741C15.1493 11.8567 13.1981 9.19588 12.376 8.8937C12.0279 8.7657 11.6622 8.76451 11.287 8.89073C10.3419 9.20845 9.6637 9.76641 9.32552 10.5042C8.9987 11.2171 9.01345 12.0542 9.3682 12.9249C10.3937 15.4425 11.8355 17.6375 13.6537 19.4488C15.4333 21.2219 17.6207 22.6743 20.1549 23.7655C20.3834 23.8638 20.623 23.9174 20.7979 23.9565C20.8575 23.9699 20.909 23.9814 20.9465 23.9916C20.9672 23.9973 20.9884 24.0003 21.0098 24.0005L21.0298 24.0006C21.0298 24.0006 21.0298 24.0006 21.0299 24.0006C22.2218 24.0006 23.653 22.9114 24.0926 21.6697C24.4777 20.5824 23.7746 20.0449 23.2096 19.6131Z" fill="white"/>
<path d="M18.1575 12.1518C17.9534 12.157 17.5287 12.1675 17.3797 12.6C17.31 12.8022 17.3183 12.9777 17.4046 13.1217C17.5311 13.333 17.7735 13.3977 17.9939 13.4332C18.7935 13.5615 19.2041 14.0037 19.2862 14.8245C19.3244 15.2073 19.5822 15.4746 19.9131 15.4746H19.9132C19.9376 15.4746 19.9626 15.4731 19.9875 15.4701C20.3855 15.4228 20.5785 15.1303 20.561 14.601C20.5674 14.0486 20.2783 13.4215 19.7866 12.922C19.2932 12.4209 18.6985 12.1387 18.1575 12.1518Z" fill="white"/>
</svg>
