<svg width="33" height="32" viewBox="0 0 33 32" fill="none" xmlns="http://www.w3.org/2000/svg">
<path d="M16.8219 31.8812C25.6257 31.8812 32.7625 24.7443 32.7625 15.9406C32.7625 7.13685 25.6257 0 16.8219 0C8.01819 0 0.881348 7.13685 0.881348 15.9406C0.881348 24.7443 8.01819 31.8812 16.8219 31.8812Z" fill="#5281B9"/>
<path fill-rule="evenodd" clip-rule="evenodd" d="M16.2174 22.932H17.4685C17.4685 22.932 17.8465 22.8905 18.0394 22.6825C18.217 22.4915 18.2113 22.1329 18.2113 22.1329C18.2113 22.1329 18.1869 20.4541 18.966 20.2069C19.7341 19.9634 20.7204 21.8294 21.7658 22.5469C22.5564 23.09 23.1571 22.9709 23.1571 22.9709L25.9523 22.932C25.9523 22.932 27.4146 22.8419 26.7212 21.6922C26.6644 21.5981 26.3174 20.8417 24.6429 19.2874C22.8902 17.6606 23.125 17.9237 25.2362 15.1097C26.522 13.396 27.0361 12.3497 26.8755 11.9016C26.7224 11.4748 25.7767 11.5876 25.7767 11.5876L22.6294 11.6072C22.6294 11.6072 22.3961 11.5754 22.223 11.6788C22.054 11.7803 21.9451 12.0167 21.9451 12.0167C21.9451 12.0167 21.447 13.3428 20.7827 14.4707C19.3812 16.8505 18.8208 16.9761 18.5918 16.8283C18.059 16.4839 18.192 15.4447 18.192 14.7065C18.192 12.4003 18.5418 11.4387 17.5109 11.1898C17.1688 11.1071 16.917 11.0525 16.0421 11.0437C14.9191 11.0321 13.9686 11.0471 13.4304 11.3108C13.0724 11.4862 12.7962 11.8769 12.9644 11.8993C13.1724 11.9272 13.6435 12.0263 13.8933 12.3665C14.2158 12.8052 14.2044 13.7907 14.2044 13.7907C14.2044 13.7907 14.3897 16.5055 13.7717 16.8428C13.3474 17.0741 12.7655 16.6018 11.516 14.4428C10.8758 13.3369 10.3925 12.1144 10.3925 12.1144C10.3925 12.1144 10.2993 11.886 10.133 11.7638C9.9313 11.6157 9.64941 11.5686 9.64941 11.5686L6.65867 11.5882C6.65867 11.5882 6.2097 11.6007 6.04489 11.7959C5.89827 11.9695 6.03324 12.3287 6.03324 12.3287C6.03324 12.3287 8.37469 17.8066 11.0259 20.5672C13.4568 23.0982 16.2174 22.932 16.2174 22.932Z" fill="white"/>
</svg>
