<svg width="33" height="32" viewBox="0 0 33 32" fill="none" xmlns="http://www.w3.org/2000/svg">
<path d="M16.8853 0H16.8773C8.05535 0 0.881348 7.176 0.881348 16C0.881348 19.5 2.00935 22.744 3.92735 25.378L1.93335 31.322L8.08335 29.356C10.6133 31.032 13.6313 32 16.8853 32C25.7073 32 32.8813 24.822 32.8813 16C32.8813 7.178 25.7073 0 16.8853 0Z" fill="#53F270"/>
<path d="M26.1954 22.5944C25.8094 23.6844 24.2774 24.5884 23.0554 24.8524C22.2194 25.0304 21.1274 25.1724 17.4514 23.6484C12.7494 21.7004 9.72145 16.9224 9.48545 16.6124C9.25945 16.3024 7.58545 14.0824 7.58545 11.7864C7.58545 9.49036 8.75145 8.37236 9.22145 7.89236C9.60745 7.49836 10.2454 7.31836 10.8574 7.31836C11.0554 7.31836 11.2334 7.32836 11.3934 7.33636C11.8634 7.35636 12.0994 7.38436 12.4094 8.12636C12.7954 9.05636 13.7354 11.3524 13.8474 11.5884C13.9614 11.8244 14.0754 12.1444 13.9154 12.4544C13.7654 12.7744 13.6334 12.9164 13.3974 13.1884C13.1614 13.4604 12.9374 13.6684 12.7014 13.9604C12.4854 14.2144 12.2414 14.4864 12.5134 14.9564C12.7854 15.4164 13.7254 16.9504 15.1094 18.1824C16.8954 19.7724 18.3434 20.2804 18.8614 20.4964C19.2474 20.6564 19.7074 20.6184 19.9894 20.3184C20.3474 19.9324 20.7894 19.2924 21.2394 18.6624C21.5594 18.2104 21.9634 18.1544 22.3874 18.3144C22.8194 18.4644 25.1054 19.5944 25.5754 19.8284C26.0454 20.0644 26.3554 20.1764 26.4694 20.3744C26.5814 20.5724 26.5814 21.5024 26.1954 22.5944Z" fill="#FAFAFA"/>
</svg>
