<svg width="32" height="32" viewBox="0 0 32 32" fill="none" xmlns="http://www.w3.org/2000/svg">
<g clip-path="url(#clip0)">
<path d="M16 32.0001C24.8366 32.0001 32.0001 24.8366 32.0001 16C32.0001 7.16346 24.8366 0 16 0C7.16346 0 0 7.16346 0 16C0 24.8366 7.16346 32.0001 16 32.0001Z" fill="#FE0000"/>
<path d="M27.3132 4.68464C33.5616 10.9336 33.5621 21.0646 27.3132 27.3135C21.0648 33.562 10.9332 33.5622 4.68429 27.3135L27.3132 4.68464Z" fill="#FE0000"/>
<path d="M31.6784 19.2041L23.7594 11.2854L14.4199 12.3488L8.77053 21.0949L19.3268 31.6509C25.5333 30.3379 30.4126 25.4285 31.6784 19.2041Z" fill="#FE0000"/>
<path d="M24.3731 12.9128C24.3731 11.5715 23.2865 10.4844 21.946 10.4844H10.5585C9.21824 10.4844 8.13184 11.5718 8.13184 12.9128V19.4247C8.13184 20.766 9.21844 21.8532 10.5585 21.8532H21.9458C23.2866 21.8532 24.3729 20.7658 24.3729 19.4247L24.3731 12.9128ZM14.6278 18.9159V12.7996L19.2662 15.8579L14.6278 18.9159Z" fill="white"/>
</g>
<defs>
<clipPath id="clip0">
<rect width="32" height="32" fill="white"/>
</clipPath>
</defs>
</svg>
